<svg width="19" height="18" viewBox="0 0 19 18" fill="none" xmlns="http://www.w3.org/2000/svg">
<g clip-path="url(#clip0_84_1000)">
<path d="M18.6483 18.0002L18.6528 17.9994V11.3979C18.6528 8.16841 17.9575 5.68066 14.182 5.68066C12.367 5.68066 11.149 6.67666 10.6518 7.62091H10.5993V5.98216H7.01953V17.9994H10.747V12.0489C10.747 10.4822 11.044 8.96716 12.9843 8.96716C14.896 8.96716 14.9245 10.7552 14.9245 12.1494V18.0002H18.6483Z" fill="black"/>
<path d="M0.949951 5.98291H4.68195V18.0002H0.949951V5.98291Z" fill="black"/>
<path d="M2.81433 0C1.62108 0 0.652832 0.96825 0.652832 2.1615C0.652832 3.35475 1.62108 4.34325 2.81433 4.34325C4.00758 4.34325 4.97583 3.35475 4.97583 2.1615C4.97508 0.96825 4.00683 0 2.81433 0Z" fill="black"/>
</g>
<defs>
<clipPath id="clip0_84_1000">
<rect width="18" height="18" fill="white" transform="translate(0.652832)"/>
</clipPath>
</defs>
</svg>
