<svg width="63" height="60" viewBox="0 0 63 60" fill="none" xmlns="http://www.w3.org/2000/svg">
<path d="M33.234 0.0233807C40.1857 0.969552 46.4938 4.56318 50.8231 10.0437C52.9319 12.6394 55.936 14.5453 57.8917 17.2462C63.7822 25.4308 64.6304 34.4573 60.1654 43.5188C55.7004 52.5804 48.0309 57.3976 37.7814 58.0407C35.0836 58.2044 32.4446 59.2099 29.7467 59.7127C23.1013 60.708 16.3266 59.0953 10.859 55.2165C5.39152 51.3377 1.6612 45.498 0.459081 38.9354C-0.734527 32.6932 0.418065 26.2332 3.69887 20.7773C4.29235 19.7433 4.79299 18.6595 5.19505 17.5385C8.94142 7.4714 16.175 1.66031 26.8251 0L33.234 0.0233807ZM29.2638 50.1016C37.2277 49.8912 43.401 47.2604 48.2666 41.8118C49.1843 40.7559 49.8024 39.4766 50.0573 38.1053C52.4135 25.3139 43.3068 12.5926 30.4065 10.2425C29.274 10.0085 28.1053 10.0049 26.9714 10.232C25.8374 10.4591 24.7616 10.9121 23.8091 11.5637C19.5721 14.2309 16.2456 18.1059 14.2654 22.6813C12.2851 27.2566 11.7435 32.3189 12.7114 37.205C14.0073 43.9865 17.5652 48.4062 24.6809 49.4702C26.4245 49.7976 28.1681 49.9613 29.2638 50.1016ZM32.2679 57.5379C11.9456 54.5564 5.45424 40.9582 3.69887 23.7822C-0.742586 32.189 0.85963 43.4019 7.70442 50.8616C13.9719 57.725 24.9048 60.4259 32.2679 57.5379ZM51.8245 36.2696C55.7004 29.9324 55.2174 20.2277 50.8702 15.2234C45.2624 8.69909 37.534 6.20862 31.0073 8.89785C44.7205 12.8966 51.848 21.853 51.8245 36.2696ZM7.43348 15.6677C13.6539 11.4 19.5915 7.79878 26.3892 5.9397C33.4578 3.99877 40.1965 6.50093 46.9589 8.27816C40.6089 2.30338 33.2104 -0.152007 24.5749 1.76553C16.823 3.46092 11.2152 8.05601 7.43348 15.6677ZM53.5916 14.8609C53.8154 15.4456 54.0275 16.0302 54.2513 16.6148C55.8418 20.8123 57.9035 24.7994 58.033 29.4764C58.3629 41.005 52.7552 49.9379 42.1522 54.8136C41.1626 55.2696 40.2437 55.8659 39.2776 56.4038C50.0926 54.9422 57.5736 49.2832 60.566 38.8653C63.2049 29.5933 60.6131 21.5139 53.5916 14.8609ZM13.1237 43.3201C8.18745 29.5465 11.5922 18.5557 23.5735 9.91509C14.5492 10.8856 10.8264 17.024 8.58799 24.168C6.3496 31.312 6.64413 37.9416 13.1237 43.3201ZM48.4668 43.6124C44.7001 47.3493 39.8903 49.8787 34.6595 50.8733C29.4955 51.7875 24.1751 51.1945 19.3441 49.1662C26.9075 58.2512 42.6941 58.6838 48.4668 43.6124ZM45.8515 51.2124C54.0393 46.3367 58.7046 34.8431 56.0067 25.7699C55.347 35.3693 50.0455 43.1564 45.8868 51.2124H45.8515ZM5.9726 30.8093C6.37165 27.9402 6.97798 25.1034 7.78689 22.3206C8.97134 19.5411 10.3614 16.8523 11.9456 14.2763C5.50137 18.6025 4.14654 21.3034 5.9726 30.8093ZM12.2873 42.8874L11.2387 43.9398C13.5213 47.5614 16.7067 50.5375 20.4869 52.5804L12.2873 42.8874ZM32.6567 6.94524L32.5153 6.2437L22.9255 8.10277L23.1376 9.08493L32.6567 6.94524Z" fill="#0976C2"/>
</svg>
